:FULLY-SPECIFIED
:FORCE-ALL-JOINTS-BE-3DOF
:DEGREES
136
root 7.77377 16.7154 -26.3446 -9.17755 12.0436 2.45487
lfemur -6.6596 14.3084 -18.8961
ltibia 32.5548 -0 0
lfoot -16.4929 -6.99532 -0.154373
ltoes 19.8918 -0 0
rfemur -88.3853 -27.3164 39.9239
rtibia 76.8779 -0 0
rfoot 7.27079 24.5894 0.048264
rtoes -37.465 0 0
lowerback 16.108 -3.34063 -6.761
upperback 5.15568 -5.46293 -0.358289
thorax -2.91883 -2.71791 4.32624
lowerneck -12.2816 -1.48139 -0.0923765
upperneck 0.796743 -2.09275 2.90394
head 2.43643 -0.937026 0.827747
lclavicle 4.39027e-14 1.52096e-14 5.62939e-30
lhumerus -37.7497 -22.2323 91.6768
lradius 48.7837 -0 0
lwrist 11.0085 0 0
lhand 13.0527 7.46184 0.0269221
lfingers 7.12502 -0 0
lthumb 37.986 33.0425 -0.0365964
rclavicle 4.39027e-14 1.52096e-14 5.62939e-30
rhumerus -46.8311 -14.1945 -59.6646
rradius 78.5853 -0 0
rwrist -9.06522 0 0
rhand -7.7516 -31.0224 3.63951
rfingers 7.12502 -0 0
rthumb 18.0771 -58.6037 3.80924
137
root 7.73163 16.6911 -26.3356 -8.88591 12.697 2.4611
lfemur -7.30222 14.7739 -18.801
ltibia 33.1103 -0 0
lfoot -16.7973 -6.49384 -0.165957
ltoes 18.1601 -0 0
rfemur -89.2782 -27.6471 40.275
rtibia 81.5741 -0 0
rfoot 8.79918 24.9495 0.014654
rtoes -37.3006 0 0
lowerback 16.0418 -3.54613 -6.96763
upperback 5.08078 -5.76904 -0.470961
thorax -2.91682 -2.86628 4.36807
lowerneck -12.2502 -1.54637 -0.218228
upperneck 0.691708 -2.16713 3.10523
head 2.40214 -0.969091 0.911587
lclavicle 5.09939e-14 1.39669e-14 5.79321e-30
lhumerus -37.3588 -23.1286 91.661
lradius 48.4692 -0 0
lwrist 10.7064 0 0
lhand 13.9606 7.72631 0.0179219
lfingers 7.12502 -0 0
lthumb 38.8426 33.07 -0.0416764
rclavicle 5.09939e-14 1.39669e-14 5.79321e-30
rhumerus -47.6904 -14.7468 -60.5878
rradius 79.9584 -0 0
rwrist -8.83751 0 0
rhand -10.8144 -32.9668 3.7489
rfingers 7.12502 -0 0
rthumb 15.1227 -60.7488 3.93365
138
root 7.68794 16.6661 -26.3262 -8.56869 13.3688 2.46217
lfemur -7.98404 15.238 -18.7028
ltibia 33.6823 -0 0
lfoot -17.0965 -5.97475 -0.173343
ltoes 16.4205 -0 0
rfemur -90.0455 -27.9765 40.5264
rtibia 86.2911 -0 0
rfoot 10.3664 25.2615 -0.0289702
rtoes -37.0002 0 0
lowerback 15.948 -3.75077 -7.16246
upperback 4.99513 -6.06995 -0.582421
thorax -2.91218 -3.01204 4.40251
lowerneck -12.2142 -1.62068 -0.343404
upperneck 0.585286 -2.25369 3.30737
head 2.36678 -1.00738 0.994988
lclavicle 5.79271e-14 1.26887e-14 5.7694e-30
lhumerus -36.9802 -24.0348 91.6601
lradius 48.1568 -0 0
lwrist 10.4116 0 0
lhand 14.8887 8.01206 0.00805894
lfingers 7.12502 -0 0
lthumb 39.7175 33.1089 -0.0458432
rclavicle 5.79271e-14 1.26887e-14 5.7694e-30
rhumerus -48.5414 -15.2984 -61.5389
rradius 81.3153 -0 0
rwrist -8.59003 0 0
rhand -13.9408 -34.9248 3.7488
rfingers 7.12502 -0 0
rthumb 12.1062 -62.9134 3.94192
139
root 7.64311 16.6406 -26.3165 -8.23013 14.0535 2.4592
lfemur -8.69567 15.7025 -18.6033
ltibia 34.2635 -0 0
lfoot -17.3836 -5.44132 -0.17609
ltoes 14.6961 -0 0
rfemur -90.6696 -28.3049 40.6703
rtibia 90.9522 -0 0
rfoot 11.9437 25.5092 -0.0796449
rtoes -36.5627 0 0
lowerback 15.8278 -3.95306 -7.34289
upperback 4.90011 -6.36315 -0.692072
thorax -2.90469 -3.15403 4.42819
lowerneck -12.1736 -1.70383 -0.466957
upperneck 0.47956 -2.3519 3.50846
head 2.33111 -1.05169 1.07717
lclavicle 6.45785e-14 1.1395e-14 5.55984e-30
lhumerus -36.6193 -24.9453 91.6784
lradius 47.8521 -0 0
lwrist 10.1284 0 0
lhand 15.8297 8.31939 -0.00219436
lfingers 7.12502 -0 0
lthumb 40.6041 33.1601 -0.0489
rclavicle 6.45785e-14 1.1395e-14 5.55984e-30
rhumerus -49.373 -15.8449 -62.5062
rradius 82.6449 -0 0
rwrist -8.32843 0 0
rhand -17.0852 -36.8701 3.6388
rfingers 7.12502 -0 0
rthumb 9.07226 -65.0678 3.83303
140
root 7.59758 16.615 -26.3063 -7.87445 14.7453 2.45316
lfemur -9.42769 16.1687 -18.504
ltibia 34.8463 -0 0
lfoot -17.6521 -4.89687 -0.173922
ltoes 13.01 -0 0
rfemur -91.1324 -28.6325 40.6991
rtibia 95.481 -0 0
rfoot 13.5025 25.6764 -0.133214
rtoes -35.9872 0 0
lowerback 15.6821 -4.15148 -7.50634
upperback 4.79705 -6.64608 -0.79934
thorax -2.89412 -3.29108 4.44374
lowerneck -12.1288 -1.79534 -0.587939
upperneck 0.37662 -2.46125 3.70663
head 2.29588 -1.10178 1.15734
lclavicle 7.08243e-14 1.01062e-14 5.17697e-30
lhumerus -36.2817 -25.8545 91.7207
lradius 47.5603 -0 0
lwrist 9.86123 0 0
lhand 16.7766 8.64859 -0.0123171
lfingers 7.12502 -0 0
lthumb 41.4956 33.2247 -0.0506749
rclavicle 7.08243e-14 1.01062e-14 5.17697e-30
rhumerus -50.1744 -16.3814 -63.4786
rradius 83.9361 -0 0
rwrist -8.05835 0 0
rhand -20.2025 -38.777 3.4239
rfingers 7.12502 -0 0
rthumb 6.06541 -67.1826 3.61189
141
root 7.55176 16.5894 -26.2956 -7.5059 15.4386 2.44487
lfemur -10.1707 16.6382 -18.4065
ltibia 35.4235 -0 0
lfoot -17.8951 -4.34469 -0.166734
ltoes 11.3854 -0 0
rfemur -91.4157 -28.9586 40.6045
rtibia 99.8006 -0 0
rfoot 15.0142 25.7471 -0.184521
rtoes -35.2723 0 0
lowerback 15.5118 -4.34447 -7.65023
upperback 4.68729 -6.91621 -0.903676
thorax -2.88022 -3.42204 4.44779
lowerneck -12.0801 -1.89471 -0.705404
upperneck 0.278571 -2.58127 3.89996
head 2.26185 -1.15746 1.23473
lclavicle 7.65409e-14 8.84223e-15 4.64317e-30
lhumerus -35.9734 -26.7566 91.7918
lradius 47.2868 -0 0
lwrist 9.61457 0 0
lhand 17.7225 9.00002 -0.0217277
lfingers 7.12502 -0 0
lthumb 42.3851 33.3035 -0.0510142
rclavicle 7.65409e-14 8.84223e-15 4.64317e-30
rhumerus -50.935 -16.9022 -64.4453
rradius 85.1779 -0 0
rwrist -7.78545 0 0
rhand -23.2482 -40.6204 3.11441
rfingers 7.12502 -0 0
rthumb 3.12921 -69.2296 3.28916
142
root 7.50607 16.564 -26.2842 -7.12875 16.1277 2.43496
lfemur -10.9152 17.1122 -18.3123
ltibia 35.9877 -0 0
lfoot -18.106 -3.78808 -0.154585
ltoes 9.84534 -0 0
rfemur -91.5011 -29.2816 40.3783
rtibia 103.835 -0 0
rfoot 16.4503 25.7058 -0.227689
rtoes -34.4171 0 0
lowerback 15.318 -4.53041 -7.77202
upperback 4.57217 -7.17098 -1.00456
thorax -2.86276 -3.54573 4.43896
lowerneck -12.0276 -2.00148 -0.818405
upperneck 0.187532 -2.71151 4.08654
head 2.22977 -1.21852 1.30853
lclavicle 8.16044e-14 7.62335e-15 3.98981e-30
lhumerus -35.7008 -27.6462 91.8972
lradius 47.037 -0 0
lwrist 9.3928 0 0
lhand 18.6604 9.37404 -0.0297709
lfingers 7.12502 -0 0
lthumb 43.266 33.3974 -0.0497746
rclavicle 8.16044e-14 7.62335e-15 3.98981e-30
rhumerus -51.6446 -17.4012 -65.3953
rradius 86.3593 -0 0
rwrist -7.51536 0 0
rhand -26.1793 -42.3774 2.72546
rfingers 7.12502 -0 0
rthumb 0.305811 -71.1821 2.88084
143
root 7.46093 16.5391 -26.2721 -6.74732 16.8068 2.42388
lfemur -11.6518 17.5921 -18.2226
ltibia 36.5314 -0 0
lfoot -18.278 -3.23034 -0.137698
ltoes 8.41299 -0 0
rfemur -91.3701 -29.5987 40.0115
rtibia 107.506 -0 0
rfoot 17.7822 25.537 -0.256465
rtoes -33.4205 0 0
lowerback 15.1015 -4.70765 -7.8692
upperback 4.45299 -7.40783 -1.10148
thorax -2.84149 -3.66099 4.41589
lowerneck -11.9718 -2.11515 -0.925993
upperneck 0.105636 -2.85153 4.26443
head 2.2004 -1.28474 1.37796
lclavicle 8.58911e-14 6.46972e-15 3.25585e-30
lhumerus -35.4703 -28.5176 92.0426
lradius 46.8163 -0 0
lwrist 9.20033 0 0
lhand 19.5831 9.77105 -0.035705
lfingers 7.12502 -0 0
lthumb 44.1315 33.5075 -0.0468147
rclavicle 8.58911e-14 6.46972e-15 3.25585e-30
rhumerus -52.2931 -17.8715 -66.3182
rradius 87.4693 -0 0
rwrist -7.25374 0 0
rhand -28.9539 -44.0271 2.27641
rfingers 7.12502 -0 0
rthumb -2.36434 -73.0161 2.40754
144
root 7.41676 16.5148 -26.2591 -6.36594 17.4704 2.4119
lfemur -12.3711 18.0791 -18.1387
ltibia 37.0473 -0 0
lfoot -18.4044 -2.67472 -0.116451
ltoes 7.11146 -0 0
rfemur -91.0039 -29.9054 39.4956
rtibia 110.739 -0 0
rfoot 18.9812 25.2254 -0.264655
rtoes -32.2813 0 0
lowerback 14.8633 -4.87448 -7.93926
upperback 4.33108 -7.62419 -1.19398
thorax -2.81617 -3.76664 4.3772
lowerneck -11.9129 -2.23525 -1.02722
upperneck 0.0350343 -3.00089 4.43169
head 2.17451 -1.35593 1.44223
lclavicle 8.92773e-14 5.40146e-15 2.48595e-30
lhumerus -35.2887 -29.3649 92.2339
lradius 46.6299 -0 0
lwrist 9.04158 0 0
lhand 20.4839 10.1915 -0.0386887
lfingers 7.12502 -0 0
lthumb 44.9747 33.6347 -0.0419843
rclavicle 8.92773e-14 5.40146e-15 2.48595e-30
rhumerus -52.8709 -18.3059 -67.2033
rradius 88.4968 -0 0
rwrist -7.00623 0 0
rhand -31.532 -45.5513 1.79012
rfingers 7.12502 -0 0
rthumb -4.84266 -74.7099 1.89373
145
root 7.37398 16.4914 -26.2453 -5.98902 18.1128 2.3991
lfemur -13.0635 18.5745 -18.0615
ltibia 37.5279 -0 0
lfoot -18.4785 -2.12451 -0.0913623
ltoes 5.96386 -0 0
rfemur -90.3838 -30.1956 38.8216
rtibia 113.456 -0 0
rfoot 20.0184 24.7559 -0.246624
rtoes -30.9985 0 0
lowerback 14.6043 -5.02914 -7.97974
upperback 4.20774 -7.81749 -1.2816
thorax -2.78657 -3.86151 4.32154
lowerneck -11.8511 -2.36133 -1.12114
upperneck -0.0221027 -3.1592 4.58633
head 2.15286 -1.43188 1.50054
lclavicle 9.16392e-14 4.43875e-15 1.72821e-30
lhumerus -35.1632 -30.1825 92.4775
lradius 46.4833 -0 0
lwrist 8.92096 0 0
lhand 21.3556 10.6358 -0.0377666
lfingers 7.12502 -0 0
lthumb 45.789 33.78 -0.0351137
rclavicle 9.16392e-14 4.43875e-15 1.72821e-30
rhumerus -53.3685 -18.6967 -68.0403
rradius 89.4307 -0 0
rwrist -6.77848 0 0
rhand -33.8749 -46.9343 1.29199
rfingers 7.12502 -0 0
rthumb -7.09237 -76.2448 1.36667
146
root 7.33301 16.4692 -26.2304 -5.621 18.7281 2.3854
lfemur -13.7195 19.0793 -17.9919
ltibia 37.966 -0 0
lfoot -18.4936 -1.58293 -0.0630773
ltoes 4.99332 -0 0
rfemur -89.4914 -30.4606 37.9808
rtibia 115.581 -0 0
rfoot 20.8647 24.1134 -0.197876
rtoes -29.571 0 0
lowerback 14.3254 -5.16983 -7.98821
upperback 4.08429 -7.98515 -1.36391
thorax -2.75246 -3.94441 4.24754
lowerneck -11.7869 -2.4929 -1.20679
upperneck -0.0635858 -3.32604 4.72639
head 2.13623 -1.5124 1.5521
lclavicle 9.28531e-14 3.60174e-15 1.03141e-30
lhumerus -35.1008 -30.9644 92.7798
lradius 46.3817 -0 0
lwrist 8.84288 0 0
lhand 22.1915 11.1044 -0.0318554
lfingers 7.12502 -0 0
lthumb 46.5676 33.9444 -0.0260011
rclavicle 9.28531e-14 3.60174e-15 1.03141e-30
rhumerus -53.7768 -19.036 -68.8188
rradius 90.2601 -0 0
rwrist -6.57613 0 0
rhand -35.9453 -48.1627 0.809099
rfingers 7.12502 -0 0
rthumb -9.07821 -77.6042 0.855483
